#!OML:ASF H:\ManfredETheater\Project 1\Capture day 1\Session 1\subject.ASF
:FULLY-SPECIFIED
:DEGREES
170
root 14.745 16.348 27.6719 -5.33859 61.7507 -8.09477
lowerback 13.9964 0.324708 -0.0879273
upperback 1.12731 0.712558 3.26881
thorax -6.70858 0.425932 3.37904
lowerneck -16.0444 -3.34388 -3.41399
upperneck 17.06 -3.37254 -1.52435
head 7.9617 -1.95523 -0.330919
rclavicle 6.37105e-014 -1.47101e-014
rhumerus -48.3383 8.94706 -89.1259
rradius 102.628
rwrist -19.154
rhand -23.5913 8.20676
rfingers 7.12502
rthumb 2.87211 -21.7536
lclavicle 6.37105e-014 -1.47101e-014
lhumerus -63.9818 -12.936 93.3215
lradius 70.0983
lwrist 6.27663
lhand -22.8875 -12.7441
lfingers 7.12502
lthumb 3.55174 17.206
rfemur -17.0417 -9.33404 30.0918
rtibia 55.4466
rfoot -20.3617 -12.4467
rtoes -30.6678
lfemur -46.2416 -0.936391 -16.3846
ltibia 67.2871
lfoot -17.6722 -1.84782
ltoes -7.71222
171
root 15.0805 16.4269 27.9158 -5.50058 61.6047 -8.1664
lowerback 13.6376 0.487966 0.0776315
upperback 1.12359 0.942071 3.21181
thorax -6.52264 0.530269 3.17773
lowerneck -15.9796 -3.53192 -3.61311
upperneck 17.2249 -3.64563 -1.20283
head 8.01789 -2.06645 -0.224616
rclavicle -3.61788e-014 -1.27222e-014
rhumerus -48.4979 9.67028 -89.5543
rradius 104.728
rwrist -18.3298
rhand -23.15 8.75662
rfingers 7.12502
rthumb 3.29829 -21.1976
lclavicle -3.61788e-014 -1.27222e-014
lhumerus -64.9754 -13.4194 93.7902
lradius 71.894
lwrist 6.90657
lhand -22.7172 -12.5714
lfingers 7.12502
lthumb 3.71621 17.3759
rfemur -15.7068 -9.43024 29.8936
rtibia 55.6026
rfoot -18.5254 -11.2957
rtoes -32.3865
lfemur -46.1818 -0.897994 -16.8677
ltibia 62.5726
lfoot -17.5163 -2.09227
ltoes -9.07547
172
root 15.4187 16.5033 28.1582 -5.64269 61.4739 -8.18396
lowerback 13.2844 0.626056 0.227825
upperback 1.12122 1.13408 3.14356
thorax -6.33454 0.617095 2.98309
lowerneck -15.889 -3.69398 -3.78202
upperneck 17.4002 -3.88502 -0.917656
head 8.07277 -2.16308 -0.130965
rclavicle 3.21037e-014 -2.82274e-014
rhumerus -48.6855 10.3081 -90.0087
rradius 106.628
rwrist -17.5237
rhand -22.7026 9.27693
rfingers 7.12502
rthumb 3.73033 -20.6702
lclavicle 3.21037e-014 -2.82274e-014
lhumerus -65.8523 -13.6405 94.1143
lradius 73.5467
lwrist 7.54367
lhand -22.5708 -12.4594
lfingers 7.12502
lthumb 3.85756 17.4854
rfemur -14.5857 -9.51537 29.5968
rtibia 56.0152
rfoot -16.244 -9.90273
rtoes -33.6965
lfemur -45.8139 -0.966423 -17.3335
ltibia 57.6144
lfoot -17.1513 -2.44677
ltoes -11.0936
173
root 15.7595 16.5739 28.3991 -5.83005 61.3612 -8.1837
lowerback 12.9804 0.739045 0.375604
upperback 1.1212 1.29287 3.07582
thorax -6.16826 0.68848 2.79872
lowerneck -15.7717 -3.82971 -3.91709
upperneck 17.5971 -4.08654 -0.689197
head 8.12881 -2.24501 -0.0568336
rclavicle 4.20927e-014 -2.10712e-014
rhumerus -48.908 10.8664 -90.4742
rradius 108.322
rwrist -16.8197
rhand -22.2814 9.73713
rfingers 7.12502
rthumb 4.13704 -20.2024
lclavicle 4.20927e-014 -2.10712e-014
lhumerus -66.6399 -13.6452 94.335
lradius 75.071
lwrist 8.23196
lhand -22.479 -12.3633
lfingers 7.12502
lthumb 3.9462 17.5799
rfemur -13.6535 -9.60539 29.2142
rtibia 56.6866
rfoot -13.5298 -8.27751
rtoes -34.3976
lfemur -45.1466 -1.14916 -17.749
ltibia 52.5335
lfoot -16.6328 -2.89594
ltoes -13.6157
174
root 16.1032 16.636 28.6384 -6.05266 61.2424 -8.15854
lowerback 12.7225 0.836902 0.514254
upperback 1.11898 1.43133 3.01494
thorax -6.02828 0.750864 2.63199
lowerneck -15.6292 -3.93944 -4.01647
upperneck 17.8224 -4.24709 -0.534471
head 8.1876 -2.3124 -0.00786396
rclavicle 3.68249e-014 -1.70955e-014
rhumerus -49.1687 11.3569 -90.934
rradius 109.812
rwrist -16.2834
rhand -21.9053 10.1168
rfingers 7.12502
rthumb 4.50025 -19.8154
lclavicle 3.68249e-014 -1.70955e-014
lhumerus -67.3523 -13.4824 94.4843
lradius 76.4697
lwrist 8.99683
lhand -22.4465 -12.2811
lfingers 7.12502
lthumb 3.97762 17.6616
rfemur -12.9201 -9.67911 28.7472
rtibia 57.6181
rfoot -10.4141 -6.45663
rtoes -34.196
lfemur -44.2294 -1.42517 -18.1071
ltibia 47.4729
lfoot -16.037 -3.40733
ltoes -16.3444
175
root 16.4503 16.6862 28.8764 -6.31562 61.0784 -8.10527
lowerback 12.5159 0.93204 0.638022
upperback 1.11522 1.56605 2.96905
thorax -5.91828 0.812513 2.49114
lowerneck -15.4663 -4.02124 -4.08952
upperneck 18.0817 -4.35994 -0.458117
head 8.25146 -2.36322 0.0165537
rclavicle 6.4605e-016 -2.14687e-014
rhumerus -49.4685 11.8003 -91.3694
rradius 111.102
rwrist -15.9502
rhand -21.5838 10.4063
rfingers 7.12502
rthumb 4.81068 -19.5191
lclavicle 6.4605e-016 -2.14687e-014
lhumerus -68.0116 -13.1875 94.5966
lradius 77.7597
lwrist 9.85055
lhand -22.4724 -12.2103
lfingers 7.12502
lthumb 3.95263 17.7328
rfemur -12.3577 -9.72259 28.2072
rtibia 58.796
rfoot -6.99309 -4.60806
rtoes -33.1598
lfemur -43.1079 -1.75935 -18.4028
ltibia 42.5929
lfoot -15.4405 -3.89792
ltoes -18.9588
176
root 16.8009 16.7228 29.1133 -6.60504 60.8484 -8.01701
lowerback 12.3518 1.02816 0.745383
upperback 1.10868 1.7018 2.93964
thorax -5.8351 0.875657 2.37734
lowerneck -15.2892 -4.07259 -4.13664
upperneck 18.3724 -4.42034 -0.462196
head 8.32017 -2.39551 0.0162254
rclavicle -1.23246e-014 -4.37326e-015
rhumerus -49.803 12.2196 -91.7719
rradius 112.201
rwrist -15.834
rhand -21.3142 10.6092
rfingers 7.12502
rthumb 5.07096 -19.3101
lclavicle -1.23246e-014 -4.37326e-015
lhumerus -68.6272 -12.7773 94.6738
lradius 78.9379
lwrist 10.7605
lhand -22.5293 -12.2118
lfingers 7.12502
lthumb 3.8976 17.7323
rfemur -11.9545 -9.7269 27.6042
rtibia 60.2048
rfoot -3.62915 -2.8601
rtoes -31.5785
lfemur -41.8499 -2.11745 -18.6474
ltibia 38.0646
lfoot -14.9147 -4.24577
ltoes -21.5242
177
root 17.1538 16.7448 29.3496 -6.91746 60.5389 -7.90112
lowerback 12.2242 1.12813 0.825125
upperback 1.09958 1.84144 2.93475
thorax -5.77623 0.941993 2.30464
lowerneck -15.1129 -4.09315 -4.18316
upperneck 18.6941 -4.4257 -0.521423
head 8.39741 -2.40734 0.00359732
rclavicle -5.04416e-014 -1.11319e-014
rhumerus -50.1606 12.6315 -92.1291
rradius 113.117
rwrist -15.9022
rhand -21.081 10.737
rfingers 7.12502
rthumb 5.29616 -19.1768
lclavicle -5.04416e-014 -1.11319e-014
lhumerus -69.203 -12.2671 94.7276
lradius 80.0188
lwrist 11.6925
lhand -22.6145 -12.2579
lfingers 7.12502
lthumb 3.81534 17.6877
rfemur -11.6989 -9.68346 26.964
rtibia 61.8171
rfoot -0.673608 -1.32087
rtoes -29.684
lfemur -40.5308 -2.46594 -18.8445
ltibia 34.0629
lfoot -14.5086 -4.381
ltoes -23.8116
178
root 17.5079 16.7531 29.5854 -7.2312 60.154 -7.7524
lowerback 12.13 1.22663 0.88027
upperback 1.08168 1.97788 2.94583
thorax -5.74614 1.00768 2.2632
lowerneck -14.9488 -4.08097 -4.22533
upperneck 19.0432 -4.37623 -0.622324
head 8.4843 -2.39735 -0.0177379
rclavicle -9.49197e-015 -3.53837e-014
rhumerus -50.5364 13.0429 -92.45
rradius 113.862
rwrist -16.1032
rhand -20.8583 10.8133
rfingers 7.12502
rthumb 5.51118 -19.0951
lclavicle -9.49197e-015 -3.53837e-014
lhumerus -69.7475 -11.6731 94.7439
lradius 81.0213
lwrist 12.6153
lhand -22.6872 -12.3292
lfingers 7.12502
lthumb 3.74515 17.6176
rfemur -11.5913 -9.61045 26.3011
rtibia 63.5996
rfoot 1.58426 -0.123437
rtoes -27.8376
lfemur -39.2179 -2.82789 -18.9778
ltibia 30.746
lfoot -14.2373 -4.31695
ltoes -25.3804
179
root 17.8611 16.7477 29.8207 -7.55373 59.7198 -7.59348
lowerback 12.0671 1.31632 0.910937
upperback 1.05659 2.10161 2.97514
thorax -5.74201 1.06807 2.25671
lowerneck -14.8143 -4.04183 -4.27741
upperneck 19.4149 -4.28152 -0.73645
head 8.5837 -2.36839 -0.0374447
rclavicle 7.00219e-014 -1.59028e-014
rhumerus -50.9135 13.4439 -92.7347
rradius 114.447
rwrist -16.3547
rhand -20.629 10.8653
rfingers 7.12502
rthumb 5.73251 -19.0372
lclavicle 7.00219e-014 -1.59028e-014
lhumerus -70.2436 -11.0044 94.7162
lradius 81.9467
lwrist 13.4781
lhand -22.7445 -12.4133
lfingers 7.12502
lthumb 3.68979 17.5345
rfemur -11.6324 -9.55057 25.6384
rtibia 65.516
rfoot 2.96456 0.650752
rtoes -26.4504
lfemur -37.9762 -3.21018 -19.0475
ltibia 28.2337
lfoot -14.1092 -4.05938
ltoes -26.3473
180
root 18.2115 16.7285 30.0554 -7.91222 59.2583 -7.45804
lowerback 12.0459 1.38483 0.926948
upperback 1.03104 2.19809 3.02551
thorax -5.76218 1.11582 2.28465
lowerneck -14.7319 -3.97373 -4.33389
upperneck 19.7986 -4.14061 -0.856978
head 8.6963 -2.31916 -0.0543385
rclavicle -5.3324e-014 1.19271e-015
rhumerus -51.2702 13.8357 -92.9889
rradius 114.88
rwrist -16.5756
rhand -20.3777 10.9051
rfingers 7.12502
rthumb 5.9752 -18.9906
lclavicle -5.3324e-014 1.19271e-015
lhumerus -70.6768 -10.2514 94.6379
lradius 82.8104
lwrist 14.2349
lhand -22.7711 -12.4937
lfingers 7.12502
lthumb 3.66411 17.4546
rfemur -11.8189 -9.53207 24.9988
rtibia 67.5277
rfoot 3.46173 0.959658
rtoes -25.6424
lfemur -36.8498 -3.5699 -19.077
ltibia 26.593
lfoot -14.1498 -3.62957
ltoes -27.0493
181
root 18.5574 16.6963 30.2892 -8.32601 58.8021 -7.36582
lowerback 12.0851 1.42816 0.944241
upperback 1.00396 2.264 3.08559
thorax -5.817 1.14874 2.32612
lowerneck -14.6983 -3.88619 -4.37334
upperneck 20.1843 -3.97467 -0.972597
head 8.81826 -2.25702 -0.0703621
rclavicle -3.53837e-014 3.57812e-015
rhumerus -51.605 14.1715 -93.225
rradius 115.173
rwrist -16.6921
rhand -20.0818 10.944
rfingers 7.12502
rthumb 6.26086 -18.9435
lclavicle -3.53837e-014 3.57812e-015
lhumerus -71.0462 -9.46641 94.5068
lradius 83.6198
lwrist 14.8697
lhand -22.7812 -12.5079
lfingers 7.12502
lthumb 3.65437 17.4405
rfemur -12.1532 -9.59303 24.3891
rtibia 69.6001
rfoot 3.22513 0.801303
rtoes -25.3318
lfemur -35.834 -3.91239 -19.07
ltibia 25.7919
lfoot -14.2468 -3.17939
ltoes -27.5366
